<svg id="visual" viewBox="0 0 960 540" width="960" height="540" xmlns="http://www.w3.org/2000/svg" xmlns:xlink="http://www.w3.org/1999/xlink" version="1.1"><path d="M0 323L32 323C64 323 128 323 192 325.8C256 328.7 320 334.3 384 343.5C448 352.7 512 365.3 576 373.8C640 382.3 704 386.7 768 381.7C832 376.7 896 362.3 928 355.2L960 348L960 541L928 541C896 541 832 541 768 541C704 541 640 541 576 541C512 541 448 541 384 541C320 541 256 541 192 541C128 541 64 541 32 541L0 541Z" fill="#fcaf3c"></path><path d="M0 381L32 387.3C64 393.7 128 406.3 192 407C256 407.7 320 396.3 384 392.8C448 389.3 512 393.7 576 398.5C640 403.3 704 408.7 768 413.2C832 417.7 896 421.3 928 423.2L960 425L960 541L928 541C896 541 832 541 768 541C704 541 640 541 576 541C512 541 448 541 384 541C320 541 256 541 192 541C128 541 64 541 32 541L0 541Z" fill="#ee852b"></path><path d="M0 438L32 444C64 450 128 462 192 468.2C256 474.3 320 474.7 384 470.3C448 466 512 457 576 455.8C640 454.7 704 461.3 768 466.3C832 471.3 896 474.7 928 476.3L960 478L960 541L928 541C896 541 832 541 768 541C704 541 640 541 576 541C512 541 448 541 384 541C320 541 256 541 192 541C128 541 64 541 32 541L0 541Z" fill="#dd5a24"></path><path d="M0 459L32 467C64 475 128 491 192 490.8C256 490.7 320 474.3 384 472.2C448 470 512 482 576 482.8C640 483.7 704 473.3 768 472.5C832 471.7 896 480.3 928 484.7L960 489L960 541L928 541C896 541 832 541 768 541C704 541 640 541 576 541C512 541 448 541 384 541C320 541 256 541 192 541C128 541 64 541 32 541L0 541Z" fill="#c72424"></path></svg>