<svg id="visual" viewBox="0 0 960 540" width="960" height="540" xmlns="http://www.w3.org/2000/svg" xmlns:xlink="http://www.w3.org/1999/xlink" version="1.1"><rect x="0" y="0" width="960" height="540" fill="transparent"></rect><defs><linearGradient id="grad1_0" x1="43.8%" y1="0%" x2="100%" y2="100%"><stop offset="14.444444444444446%" stop-color="#ffffff" stop-opacity="1"></stop><stop offset="85.55555555555554%" stop-color="#ffffff" stop-opacity="1"></stop></linearGradient></defs><defs><linearGradient id="grad2_0" x1="0%" y1="0%" x2="56.3%" y2="100%"><stop offset="14.444444444444446%" stop-color="#ffffff" stop-opacity="1"></stop><stop offset="85.55555555555554%" stop-color="#ffffff" stop-opacity="1"></stop></linearGradient></defs><g transform="translate(960, 0)"><path d="M0 486C-59.1 456.1 -118.1 426.2 -162.3 391.7C-206.4 357.3 -235.6 318.3 -287.1 287.1C-338.5 255.9 -412.2 232.5 -449 186C-485.9 139.4 -485.9 69.7 -486 0L0 0Z" fill="#FCAF3C"></path></g><g transform="translate(0, 540)"><path d="M0 -486C49.5 -442.2 99 -398.4 156.5 -377.9C214 -357.3 279.5 -360.1 332.3 -332.3C385.2 -304.6 425.5 -246.4 449 -186C472.5 -125.5 479.3 -62.8 486 0L0 0Z" fill="#FCAF3C"></path></g></svg>