<svg id="visual" viewBox="0 0 900 600" width="900" height="600" xmlns="http://www.w3.org/2000/svg" xmlns:xlink="http://www.w3.org/1999/xlink" version="1.1"><path d="M0 433L21.5 439.8C43 446.7 86 460.3 128.8 463C171.7 465.7 214.3 457.3 257.2 467.7C300 478 343 507 385.8 507C428.7 507 471.3 478 514.2 474.3C557 470.7 600 492.3 642.8 506.2C685.7 520 728.3 526 771.2 526.8C814 527.7 857 523.3 878.5 521.2L900 519L900 601L878.5 601C857 601 814 601 771.2 601C728.3 601 685.7 601 642.8 601C600 601 557 601 514.2 601C471.3 601 428.7 601 385.8 601C343 601 300 601 257.2 601C214.3 601 171.7 601 128.8 601C86 601 43 601 21.5 601L0 601Z" fill="#FCAF3C" stroke-linecap="round" stroke-linejoin="miter"></path></svg>