<svg id="visual" viewBox="0 0 960 540" width="960" height="540" xmlns="http://www.w3.org/2000/svg" xmlns:xlink="http://www.w3.org/1999/xlink" version="1.1"><g><g transform="translate(84 491)"><path d="M0 -72.8L63.1 -36.4L63.1 36.4L0 72.8L-63.1 36.4L-63.1 -36.4Z" fill="none" stroke="#d47d19" stroke-width="2"></path></g><g transform="translate(741 442)"><path d="M0 -55L47.6 -27.5L47.6 27.5L0 55L-47.6 27.5L-47.6 -27.5Z" fill="none" stroke="#d47d19" stroke-width="2"></path></g><g transform="translate(80 222)"><path d="M0 -45L39 -22.5L39 22.5L0 45L-39 22.5L-39 -22.5Z" fill="none" stroke="#d47d19" stroke-width="2"></path></g><g transform="translate(270 114)"><path d="M0 -44L38.1 -22L38.1 22L0 44L-38.1 22L-38.1 -22Z" fill="none" stroke="#d47d19" stroke-width="2"></path></g><g transform="translate(422 158)"><path d="M0 -66L57.2 -33L57.2 33L0 66L-57.2 33L-57.2 -33Z" fill="none" stroke="#d47d19" stroke-width="2"></path></g><g transform="translate(808 293)"><path d="M0 -49L42.4 -24.5L42.4 24.5L0 49L-42.4 24.5L-42.4 -24.5Z" fill="none" stroke="#d47d19" stroke-width="2"></path></g><g transform="translate(602 314)"><path d="M0 -45L39 -22.5L39 22.5L0 45L-39 22.5L-39 -22.5Z" fill="none" stroke="#d47d19" stroke-width="2"></path></g><g transform="translate(216 302)"><path d="M0 -37L32 -18.5L32 18.5L0 37L-32 18.5L-32 -18.5Z" fill="none" stroke="#d47d19" stroke-width="2"></path></g><g transform="translate(958 485)"><path d="M0 -60L52 -30L52 30L0 60L-52 30L-52 -30Z" fill="none" stroke="#d47d19" stroke-width="2"></path></g><g transform="translate(554 77)"><path d="M0 -50L43.3 -25L43.3 25L0 50L-43.3 25L-43.3 -25Z" fill="none" stroke="#d47d19" stroke-width="2"></path></g><g transform="translate(826 38)"><path d="M0 -63L54.6 -31.5L54.6 31.5L0 63L-54.6 31.5L-54.6 -31.5Z" fill="none" stroke="#d47d19" stroke-width="2"></path></g><g transform="translate(380 455)"><path d="M0 -68L58.9 -34L58.9 34L0 68L-58.9 34L-58.9 -34Z" fill="none" stroke="#d47d19" stroke-width="2"></path></g><g transform="translate(18 51)"><path d="M0 -67L58 -33.5L58 33.5L0 67L-58 33.5L-58 -33.5Z" fill="none" stroke="#d47d19" stroke-width="2"></path></g><g transform="translate(708 154)"><path d="M0 -54L46.8 -27L46.8 27L0 54L-46.8 27L-46.8 -27Z" fill="none" stroke="#d47d19" stroke-width="2"></path></g><g transform="translate(947 230)"><path d="M0 -42L36.4 -21L36.4 21L0 42L-36.4 21L-36.4 -21Z" fill="none" stroke="#d47d19" stroke-width="2"></path></g><g transform="translate(531 508)"><path d="M0 -45L39 -22.5L39 22.5L0 45L-39 22.5L-39 -22.5Z" fill="none" stroke="#d47d19" stroke-width="2"></path></g><g transform="translate(442 320)"><path d="M0 -48L41.6 -24L41.6 24L0 48L-41.6 24L-41.6 -24Z" fill="none" stroke="#d47d19" stroke-width="2"></path></g><g transform="translate(386 7)"><path d="M0 -59L51.1 -29.5L51.1 29.5L0 59L-51.1 29.5L-51.1 -29.5Z" fill="none" stroke="#d47d19" stroke-width="2"></path></g><g transform="translate(247 524)"><path d="M0 -60L52 -30L52 30L0 60L-52 30L-52 -30Z" fill="none" stroke="#d47d19" stroke-width="2"></path></g><g transform="translate(2 349)"><path d="M0 -38L32.9 -19L32.9 19L0 38L-32.9 19L-32.9 -19Z" fill="none" stroke="#d47d19" stroke-width="2"></path></g></g></svg>